<svg xmlns="http://www.w3.org/2000/svg" viewBox="0 0 30 28" aria-hidden="true">
    <path d="M26.024,16.909c1.236-0.456,3.98-2.009,2.746-6.574c-0.043-0.158-0.152-0.29-0.299-0.362  c-0.147-0.072-0.318-0.079-0.469-0.016c-0.1,0.041-1.062,0.443-2.301,1.154c0.371-0.87,0.713-1.794,0.713-2.243  c0-0.161-0.068-0.314-0.188-0.422c-0.118-0.108-0.277-0.16-0.438-0.146c-0.072,0.007-7.186,0.777-9.07,8.598  c-0.725,0.221-2.21,0.762-2.678,1.604c-0.172,0.308-0.369,0.784-0.598,1.335c-0.256,0.62-0.761,1.837-1.078,2.235  c-0.814,0.012-1.448,0.779-1.448,1.758c0,0.049,0.042,0.584,0.052,0.652c0.322,2.242,1.379,3.48,3.145,3.682  c0.316,0.291,1.199,1.248,1.281,2.99c0.015,0.305,0.266,0.545,0.569,0.545h11.097c0.168,0,0.328-0.074,0.437-0.203  s0.153-0.301,0.125-0.465c-0.067-0.387-1.609-9.078-4.243-12.178C23.866,18.318,24.868,17.335,26.024,16.909z M22.228,19.293  c2.179,2.029,3.71,9.059,4.146,11.268h-9.889c-0.303-2.275-1.738-3.355-1.804-3.404c-0.087-0.064-0.189-0.102-0.297-0.109  c-1.697-0.121-2.113-1.52-2.286-2.725c-0.018-0.121-0.041-0.467-0.041-0.49c0-0.369,0.195-0.613,0.349-0.613  c0.001,0,0.003,0,0.005,0c0.149,0.039,0.309,0.016,0.441-0.064c0.563-0.342,1.017-1.361,1.646-2.879  c0.206-0.497,0.4-0.967,0.54-1.218c0.242-0.436,1.52-0.944,2.307-1.15c0.207-0.054,0.367-0.221,0.412-0.431  c1.259-5.819,5.514-7.453,7.324-7.889c-0.25,0.696-0.703,1.736-1.146,2.652c-1.541,1.097-3.101,2.553-3.84,4.292  c-0.123,0.29,0.012,0.625,0.302,0.748c0.289,0.123,0.624-0.012,0.747-0.302c1.208-2.843,5.147-4.954,6.677-5.686  c0.547,2.868-0.859,4.057-2.191,4.548c-1.938,0.714-3.406,2.609-3.467,2.69C21.984,18.762,22.012,19.093,22.228,19.293z"/>
    <circle cx="16.422" cy="21.536" r="0.974"/>
</svg>